<?xml version="1.0" encoding="UTF-8"?><svg id="Layer_1" xmlns="http://www.w3.org/2000/svg" viewBox="0 0 1024 1024"><defs><style>.cls-1{fill:none;}.cls-1,.cls-2{stroke-linejoin:round;}.cls-1,.cls-2,.cls-3{stroke:#06aed5;stroke-width:8.17px;}.cls-4{fill:#fff1d0;}.cls-5,.cls-2{fill:#ffc759;}.cls-6{fill:#06aed5;}.cls-3{fill:#f0c808;stroke-miterlimit:10;}</style></defs><rect class="cls-6" width="1024" height="1024"/><path class="cls-4" d="m681.63,727.81c1.11,17.51-18.94,28.73-33.04,34.17-35.81,13.23-89.68,12.07-120.51-12.38-6.3-5.36-11.95-13.14-11.06-21.79.92,8.1,6.9,14.35,13.48,18.59,30.96,18.88,81.78,19.28,116.03,9.52,13.81-4.31,32.82-11.94,35.09-28.11h0Z"/><path class="cls-4" d="m418.62,637.44c1.11,17.51-18.94,28.73-33.04,34.17-35.81,13.23-89.68,12.07-120.51-12.38-6.3-5.36-11.95-13.14-11.06-21.79.92,8.1,6.9,14.35,13.48,18.59,30.96,18.88,81.78,19.28,116.03,9.52,13.81-4.31,32.82-11.94,35.09-28.11h0Z"/><path class="cls-5" d="m599.32,741.58h0c-29.99,0-54.3-6.33-54.3-36.32v-131.97s108.6,0,108.6,0v131.97c0,29.99-24.31,36.32-54.3,36.32Z"/><path class="cls-5" d="m336.31,654.08h0c-29.99,0-54.3-6.33-54.3-36.32v-131.97s108.6,0,108.6,0v131.97c0,29.99-24.31,36.32-54.3,36.32Z"/><polygon class="cls-2" points="1024 376.01 627.03 680.33 264.2 538.24 264.2 452.46 854.41 0 1024 0 1024 376.01"/><line class="cls-3" x1="627.03" y1="594.55" x2="627.03" y2="680.33"/><polyline class="cls-1" points="1024 290.23 627.03 594.55 264.2 452.46"/></svg>